<svg version="1.1" id="Layer_1" xmlns="http://www.w3.org/2000/svg" xmlns:xlink="http://www.w3.org/1999/xlink" x="0px" y="0px"
	 width="100%" viewBox="0 0 256 256" enable-background="new 0 0 256 256" xml:space="preserve">
<path fill="#880E4F" opacity="1.000000" stroke="none" 
	d="
M257.000000,38.000000 
	C257.000000,98.354225 257.000000,158.708450 256.531342,219.531036 
	C171.041794,219.999603 86.020897,219.999802 1.000000,220.000000 
	C1.000000,159.645767 1.000000,99.291542 1.468657,38.469124 
	C86.958206,38.000622 171.979111,38.000309 257.000000,38.000000 
M70.121887,157.557007 
	C72.179611,160.368774 74.237343,163.180542 76.727997,166.271240 
	C76.823776,166.762360 76.919556,167.253464 77.061066,168.466492 
	C80.746338,170.687057 84.302010,173.167480 88.140083,175.081665 
	C102.201065,182.094345 117.582207,186.734467 128.093704,197.640915 
	C136.748154,192.515182 144.684814,187.452148 152.961044,183.023773 
	C159.991699,179.261887 167.469971,176.346649 174.646912,172.845123 
	C181.358994,169.570419 186.347122,164.675766 188.407440,156.362961 
	C188.266800,153.275726 188.126144,150.188477 187.990204,146.525375 
	C187.945724,146.338638 187.901230,146.151901 187.928604,145.247421 
	C187.646988,144.095078 187.365372,142.942734 187.085434,141.170273 
	C186.990906,140.768784 186.896378,140.367279 186.854843,139.325912 
	C186.581650,138.528564 186.308472,137.731201 186.028336,136.440002 
	C186.028336,136.440002 185.870102,135.972122 185.913284,135.311951 
	C185.630814,134.492065 185.348343,133.672180 185.053177,132.204163 
	C184.945312,131.786987 184.837433,131.369812 184.757477,130.384933 
	C184.527008,129.874069 184.296555,129.363205 184.053268,128.204193 
	C183.945358,127.787025 183.837463,127.369858 183.757492,126.384972 
	C183.527023,125.874092 183.296555,125.363213 183.064529,124.209366 
	C182.967606,123.793198 182.870667,123.377022 182.814957,122.343864 
	C182.541656,121.578377 182.268372,120.812889 181.970413,119.495087 
	C181.917953,119.318428 181.865479,119.141762 181.877060,118.265961 
	C181.600372,117.144897 181.323700,116.023842 181.067993,114.247734 
	C180.982330,113.820381 180.896667,113.393028 180.881317,112.235985 
	C180.594131,110.819603 180.306946,109.403221 180.057648,107.309204 
	C179.990448,106.862740 179.923248,106.416275 179.948792,105.081345 
	C179.912567,102.402267 179.876343,99.723190 180.123779,96.371117 
	C181.736328,92.538048 183.348877,88.704971 185.298141,84.491203 
	C185.171844,83.764740 185.045547,83.038269 184.538864,81.748680 
	C182.545883,79.622681 180.552887,77.496674 178.161057,74.852562 
	C175.348831,71.792404 172.733292,68.508476 169.629242,65.780350 
	C168.357025,64.662216 165.625656,63.822262 164.246841,64.426773 
	C153.507202,69.135353 143.430557,67.907562 133.965897,61.459408 
	C130.403275,59.032257 127.626511,59.137959 124.116112,61.526302 
	C116.507202,66.703110 107.795372,69.633904 99.127449,65.868225 
	C91.851265,62.707161 87.759682,64.869553 83.958237,70.530190 
	C83.497818,71.215775 82.902863,71.811005 81.875275,72.867889 
	C73.761978,78.830414 70.719177,85.808876 77.415489,94.801788 
	C77.892624,95.442574 78.036728,96.331360 78.288185,98.002228 
	C78.237976,101.322792 78.187767,104.643364 77.985382,108.598015 
	C77.976730,109.031387 77.968079,109.464760 77.636765,110.565475 
	C77.461136,112.033890 77.285507,113.502312 76.961403,115.452446 
	C76.966820,115.620392 76.972229,115.788330 76.677818,116.576279 
	C76.499817,117.704483 76.321815,118.832695 75.976746,120.450134 
	C75.978615,120.622452 75.980476,120.794769 75.677628,121.515961 
	C75.520073,122.326218 75.362518,123.136467 75.047150,124.518440 
	C75.042282,124.716080 75.037415,124.913712 74.737114,125.631081 
	C74.569824,126.398903 74.402534,127.166733 74.060593,128.513412 
	C74.052216,128.714798 74.043846,128.916168 73.737335,129.634827 
	C73.569969,130.401428 73.402596,131.168045 73.060616,132.513382 
	C73.052284,132.714706 73.043953,132.916031 72.713356,133.704803 
	C72.511841,134.793396 72.310318,135.882004 71.943016,137.402054 
	C71.943016,137.402054 71.946259,137.864258 71.606056,138.418457 
	C71.468498,139.262421 71.330933,140.106384 71.035248,141.528854 
	C71.035355,141.728760 71.035461,141.928650 70.748764,142.772125 
	C70.551926,144.168045 70.355095,145.563950 69.999596,147.599854 
	C69.988106,148.037811 69.976616,148.475754 69.681259,149.604645 
	C69.806252,152.008148 69.931244,154.411652 70.121887,157.557007 
z"/>
<path fill="#000000" opacity="1.000000" stroke="none" 
	d="
M257.000000,37.531342 
	C171.979111,38.000309 86.958206,38.000622 1.468657,38.000465 
	C1.000000,25.683031 1.000000,13.366062 1.000006,1.052189 
	C86.333351,1.055283 171.666687,1.055283 257.000000,1.055283 
	C257.000000,13.094605 257.000000,25.078644 257.000000,37.531342 
z"/>
<path fill="#000000" opacity="1.000000" stroke="none" 
	d="
M1.000000,220.468658 
	C86.020897,219.999802 171.041794,219.999603 256.531342,219.999695 
	C257.000000,232.316971 257.000000,244.633926 257.000000,256.947815 
	C171.666656,256.944702 86.333313,256.944702 1.000000,256.944702 
	C1.000000,244.905396 1.000000,232.921356 1.000000,220.468658 
z"/>
<path fill="#2A3693" opacity="1.000000" stroke="none" 
	d="
M77.015327,167.744583 
	C76.919556,167.253464 76.823776,166.762360 76.479797,165.756073 
	C74.704910,161.743912 73.178238,158.246887 71.725815,154.410446 
	C71.744232,153.150391 71.688408,152.229752 71.740112,150.899567 
	C71.915642,149.364136 71.983650,148.238281 72.200302,146.852127 
	C72.443283,145.825867 72.537613,145.059891 72.761398,143.915344 
	C72.924080,143.006073 72.957321,142.475357 73.134155,141.695099 
	C73.403992,140.714600 73.530258,139.983627 73.775169,138.934280 
	C74.120712,137.742035 74.347610,136.868195 75.064362,135.900482 
	C87.000801,135.781754 98.447395,135.756866 109.944824,136.175430 
	C111.368790,141.470032 112.741905,146.321182 113.881912,151.405884 
	C107.843346,156.890625 104.466911,163.161270 104.965729,171.549927 
	C124.255142,171.549927 143.090775,171.549927 162.360352,171.549927 
	C162.334457,159.989670 156.601318,152.576202 147.189865,146.912048 
	C147.198807,142.905975 147.240280,139.404465 147.730743,135.855591 
	C159.999634,135.825623 171.819519,135.843018 183.757217,136.241486 
	C184.020798,137.133209 184.166550,137.643845 184.275787,138.450516 
	C184.489975,139.505508 184.740692,140.264481 184.984909,141.394318 
	C185.100662,142.242493 185.222931,142.719772 185.308350,143.489304 
	C185.506775,144.540298 185.742020,145.299072 185.963516,146.454407 
	C186.075485,147.632599 186.201187,148.414246 186.275299,149.600433 
	C186.278870,151.904800 186.334015,153.804611 186.245728,156.063995 
	C183.796768,164.973938 177.231064,169.189392 169.835327,172.745117 
	C155.853851,179.467163 140.830765,184.302933 129.422516,194.949753 
	C124.933395,191.880905 120.949287,188.548416 116.451385,186.200027 
	C104.406219,179.911255 92.149971,174.025589 79.942711,168.051025 
	C79.115158,167.645996 77.997864,167.832962 77.015327,167.744583 
z"/>
<path fill="#F3A91D" opacity="1.000000" stroke="none" 
	d="
M185.345184,143.197067 
	C185.222931,142.719772 185.100662,142.242493 184.985931,141.090530 
	C184.766403,139.662064 184.539352,138.908279 184.312317,138.154480 
	C184.166550,137.643845 184.020798,137.133209 183.781860,135.867096 
	C181.873901,126.187630 179.543823,117.326660 178.441589,108.315514 
	C177.801636,103.083855 177.799988,97.003166 179.900253,92.392960 
	C182.847275,85.924194 183.339233,81.141174 177.649826,76.384613 
	C178.156296,75.822090 178.358109,75.596382 178.559906,75.370674 
	C180.552887,77.496674 182.545883,79.622681 184.740173,82.350143 
	C184.948120,83.591705 184.954773,84.231804 184.961426,84.871902 
	C183.348877,88.704971 181.736328,92.538048 179.815369,97.049896 
	C179.623337,100.475723 179.739685,103.222771 179.856049,105.969810 
	C179.923248,106.416275 179.990448,106.862740 180.024872,108.016914 
	C180.265045,110.138313 180.538010,111.551994 180.810989,112.965675 
	C180.896667,113.393028 180.982330,113.820381 181.045319,114.927383 
	C181.286102,116.726379 181.549545,117.845741 181.812988,118.965096 
	C181.865479,119.141762 181.917953,119.318428 181.994095,120.077286 
	C182.269775,121.426605 182.521774,122.193726 182.773743,122.960846 
	C182.870667,123.377022 182.967606,123.793198 183.093018,124.808266 
	C183.324188,125.922340 183.526871,126.437515 183.729553,126.952690 
	C183.837463,127.369858 183.945358,127.787025 184.087372,128.805664 
	C184.324188,129.922318 184.526871,130.437469 184.729553,130.952637 
	C184.837433,131.369812 184.945312,131.786987 185.062347,132.857056 
	C185.337723,134.330673 185.603912,135.151398 185.870102,135.972122 
	C185.870102,135.972122 186.028336,136.440002 186.036926,137.005127 
	C186.297623,138.368774 186.549728,139.167282 186.801849,139.965790 
	C186.896378,140.367279 186.990906,140.768784 187.068054,141.843567 
	C187.319351,143.666306 187.588043,144.815720 187.856735,145.965149 
	C187.901230,146.151901 187.945724,146.338638 187.979858,147.260040 
	C187.988968,151.016113 188.008423,154.037521 188.027893,157.058929 
	C186.347122,164.675766 181.358994,169.570419 174.646912,172.845123 
	C167.469971,176.346649 159.991699,179.261887 152.961044,183.023773 
	C144.684814,187.452148 136.748154,192.515182 128.093704,197.640915 
	C117.582207,186.734467 102.201065,182.094345 88.140083,175.081665 
	C84.302010,173.167480 80.746338,170.687057 77.038193,168.105530 
	C77.997864,167.832962 79.115158,167.645996 79.942711,168.051025 
	C92.149971,174.025589 104.406219,179.911255 116.451385,186.200027 
	C120.949287,188.548416 124.933395,191.880905 129.422516,194.949753 
	C140.830765,184.302933 155.853851,179.467163 169.835327,172.745117 
	C177.231064,169.189392 183.796768,164.973938 186.387482,155.773956 
	C186.557404,153.148193 186.442139,151.172028 186.326889,149.195877 
	C186.201187,148.414246 186.075485,147.632599 185.969284,146.151581 
	C185.774246,144.700500 185.559708,143.948792 185.345184,143.197067 
z"/>
<path fill="#F3A91D" opacity="1.000000" stroke="none" 
	d="
M82.370255,72.448112 
	C82.902863,71.811005 83.497818,71.215775 83.958237,70.530190 
	C87.759682,64.869553 91.851265,62.707161 99.127449,65.868225 
	C107.795372,69.633904 116.507202,66.703110 124.116112,61.526302 
	C127.626511,59.137959 130.403275,59.032257 133.965897,61.459408 
	C143.430557,67.907562 153.507202,69.135353 164.246841,64.426773 
	C165.625656,63.822262 168.357025,64.662216 169.629242,65.780350 
	C172.733292,68.508476 175.348831,71.792404 178.360474,75.111618 
	C178.358109,75.596382 178.156296,75.822090 177.387604,76.178612 
	C174.212631,73.512512 171.784653,70.507477 168.909485,68.019157 
	C167.727722,66.996407 165.251312,66.266426 163.928040,66.800720 
	C153.373688,71.062164 143.316116,70.184364 134.023987,63.869080 
	C130.157501,61.241264 127.312195,61.787090 123.809143,64.106560 
	C116.727829,68.795296 108.625824,71.382149 100.617928,68.430611 
	C93.158730,65.681297 88.195435,66.895470 84.089600,73.316109 
	C84.003807,73.450264 83.842155,73.535912 83.380463,73.344086 
	C82.820107,72.845352 82.595184,72.646729 82.370255,72.448112 
z"/>
<path fill="#F3A91D" opacity="1.000000" stroke="none" 
	d="
M71.651566,154.749878 
	C73.178238,158.246887 74.704910,161.743912 76.263336,165.616608 
	C74.237343,163.180542 72.179611,160.368774 70.086655,156.751572 
	C70.022659,153.601990 69.993889,151.257858 69.965126,148.913712 
	C69.976616,148.475754 69.988106,148.037811 70.241058,146.966812 
	C70.666870,144.932037 70.851227,143.530289 71.035576,142.128555 
	C71.035461,141.928650 71.035355,141.728760 71.267693,140.956238 
	C71.648849,139.543839 71.797554,138.704056 71.946259,137.864258 
	C71.946259,137.864258 71.943016,137.402054 72.193977,136.897217 
	C72.641830,135.300690 72.838722,134.209030 73.035614,133.117355 
	C73.043953,132.916031 73.052284,132.714706 73.295166,131.966476 
	C73.698311,130.652222 73.866898,129.884872 74.035484,129.117523 
	C74.043846,128.916168 74.052216,128.714798 74.295166,127.965797 
	C74.697350,126.649239 74.864952,125.880295 75.032555,125.111351 
	C75.037415,124.913712 75.042282,124.716080 75.277679,123.959457 
	C75.666245,122.589340 75.824295,121.778214 75.982346,120.967079 
	C75.980476,120.794769 75.978615,120.622452 76.225395,119.902534 
	C76.641907,118.222046 76.809769,117.089157 76.977631,115.956268 
	C76.972229,115.788330 76.966820,115.620392 77.207718,114.885674 
	C77.622498,112.845314 77.790970,111.371719 77.959435,109.898132 
	C77.968079,109.464760 77.976730,109.031387 78.231384,107.926193 
	C78.430153,103.871185 78.382919,100.488014 78.335686,97.104836 
	C78.036728,96.331360 77.892624,95.442574 77.415489,94.801788 
	C70.719177,85.808876 73.761978,78.830414 82.122765,72.658005 
	C82.595184,72.646729 82.820107,72.845352 83.189194,73.620270 
	C81.543655,76.151115 79.955460,78.355110 77.917061,80.001816 
	C74.850311,82.479263 74.884949,84.930374 76.742516,88.104179 
	C79.837219,93.391754 81.258324,99.157501 80.188301,105.285103 
	C78.398315,115.535713 76.453911,125.759346 74.574509,135.994339 
	C74.347610,136.868195 74.120712,137.742035 73.637276,139.171661 
	C73.250679,140.466492 73.120621,141.205566 72.990570,141.944641 
	C72.957321,142.475357 72.924080,143.006073 72.627640,144.164963 
	C72.260170,145.566223 72.155914,146.339325 72.051651,147.112411 
	C71.983650,148.238281 71.915642,149.364136 71.611725,151.120422 
	C71.467728,152.750504 71.559647,153.750198 71.651566,154.749878 
z"/>
<path fill="#EFA51D" opacity="1.000000" stroke="none" 
	d="
M78.311935,97.553528 
	C78.382919,100.488014 78.430153,103.871185 78.307480,107.609146 
	C78.187767,104.643364 78.237976,101.322792 78.311935,97.553528 
z"/>
<path fill="#EDA421" opacity="1.000000" stroke="none" 
	d="
M188.217667,156.710938 
	C188.008423,154.037521 187.988968,151.016113 187.977493,147.547974 
	C188.126144,150.188477 188.266800,153.275726 188.217667,156.710938 
z"/>
<path fill="#EDA421" opacity="1.000000" stroke="none" 
	d="
M179.902420,105.525574 
	C179.739685,103.222771 179.623337,100.475723 179.673553,97.386398 
	C179.876343,99.723190 179.912567,102.402267 179.902420,105.525574 
z"/>
<path fill="#EFA51D" opacity="1.000000" stroke="none" 
	d="
M69.823196,149.259186 
	C69.993889,151.257858 70.022659,153.601990 70.053833,156.380646 
	C69.931244,154.411652 69.806252,152.008148 69.823196,149.259186 
z"/>
<path fill="#EDA421" opacity="1.000000" stroke="none" 
	d="
M180.846161,112.600830 
	C180.538010,111.551994 180.265045,110.138313 180.005920,108.355728 
	C180.306946,109.403221 180.594131,110.819603 180.846161,112.600830 
z"/>
<path fill="#EFA51D" opacity="1.000000" stroke="none" 
	d="
M70.892166,142.450348 
	C70.851227,143.530289 70.666870,144.932037 70.320389,146.646820 
	C70.355095,145.563950 70.551926,144.168045 70.892166,142.450348 
z"/>
<path fill="#EFA51D" opacity="1.000000" stroke="none" 
	d="
M77.798096,110.231804 
	C77.790970,111.371719 77.622498,112.845314 77.281952,114.644814 
	C77.285507,113.502312 77.461136,112.033890 77.798096,110.231804 
z"/>
<path fill="#EFA51D" opacity="1.000000" stroke="none" 
	d="
M72.874481,133.411072 
	C72.838722,134.209030 72.641830,135.300690 72.276871,136.681488 
	C72.310318,135.882004 72.511841,134.793396 72.874481,133.411072 
z"/>
<path fill="#EDA421" opacity="1.000000" stroke="none" 
	d="
M181.845032,118.615524 
	C181.549545,117.845741 181.286102,116.726379 181.034851,115.254906 
	C181.323700,116.023842 181.600372,117.144897 181.845032,118.615524 
z"/>
<path fill="#EFA51D" opacity="1.000000" stroke="none" 
	d="
M76.827721,116.266273 
	C76.809769,117.089157 76.641907,118.222046 76.308929,119.657913 
	C76.321815,118.832695 76.499817,117.704483 76.827721,116.266273 
z"/>
<path fill="#EDA421" opacity="1.000000" stroke="none" 
	d="
M187.892670,145.606293 
	C187.588043,144.815720 187.319351,143.666306 187.067200,142.153641 
	C187.365372,142.942734 187.646988,144.095078 187.892670,145.606293 
z"/>
<path fill="#EDA421" opacity="1.000000" stroke="none" 
	d="
M185.891693,135.642029 
	C185.603912,135.151398 185.337723,134.330673 185.068695,133.181122 
	C185.348343,133.672180 185.630814,134.492065 185.891693,135.642029 
z"/>
<path fill="#EDA421" opacity="1.000000" stroke="none" 
	d="
M182.794357,122.652359 
	C182.521774,122.193726 182.269775,121.426605 182.006439,120.353455 
	C182.268372,120.812889 182.541656,121.578377 182.794357,122.652359 
z"/>
<path fill="#F0A61F" opacity="1.000000" stroke="none" 
	d="
M185.129791,84.681549 
	C184.954773,84.231804 184.948120,83.591705 184.930359,82.631706 
	C185.045547,83.038269 185.171844,83.764740 185.129791,84.681549 
z"/>
<path fill="#EFA51D" opacity="1.000000" stroke="none" 
	d="
M75.829987,121.241516 
	C75.824295,121.778214 75.666245,122.589340 75.356583,123.673599 
	C75.362518,123.136467 75.520073,122.326218 75.829987,121.241516 
z"/>
<path fill="#EFA51D" opacity="1.000000" stroke="none" 
	d="
M71.776154,138.141357 
	C71.797554,138.704056 71.648849,139.543839 71.346756,140.666992 
	C71.330933,140.106384 71.468498,139.262421 71.776154,138.141357 
z"/>
<path fill="#EDA421" opacity="1.000000" stroke="none" 
	d="
M186.828339,139.645844 
	C186.549728,139.167282 186.297623,138.368774 186.040405,137.252060 
	C186.308472,137.731201 186.581650,138.528564 186.828339,139.645844 
z"/>
<path fill="#EFA51D" opacity="1.000000" stroke="none" 
	d="
M74.884834,125.371216 
	C74.864952,125.880295 74.697350,126.649239 74.382492,127.676369 
	C74.402534,127.166733 74.569824,126.398903 74.884834,125.371216 
z"/>
<path fill="#EFA51D" opacity="1.000000" stroke="none" 
	d="
M73.886414,129.376175 
	C73.866898,129.884872 73.698311,130.652222 73.382469,131.677109 
	C73.402596,131.168045 73.569969,130.401428 73.886414,129.376175 
z"/>
<path fill="#EDA421" opacity="1.000000" stroke="none" 
	d="
M183.743530,126.668831 
	C183.526871,126.437515 183.324188,125.922340 183.093796,125.129745 
	C183.296555,125.363213 183.527023,125.874092 183.743530,126.668831 
z"/>
<path fill="#EDA421" opacity="1.000000" stroke="none" 
	d="
M184.743515,130.668793 
	C184.526871,130.437469 184.324188,129.922318 184.093781,129.129745 
	C184.296555,129.363205 184.527008,129.874069 184.743515,130.668793 
z"/>
<path fill="#91C8F4" opacity="1.000000" stroke="none" 
	d="
M75.064362,135.900482 
	C76.453911,125.759346 78.398315,115.535713 80.188301,105.285103 
	C81.258324,99.157501 79.837219,93.391754 76.742516,88.104179 
	C74.884949,84.930374 74.850311,82.479263 77.917061,80.001816 
	C79.955460,78.355110 81.543655,76.151115 83.524635,73.920380 
	C83.842155,73.535912 84.003807,73.450264 84.089600,73.316109 
	C88.195435,66.895470 93.158730,65.681297 100.617928,68.430611 
	C108.625824,71.382149 116.727829,68.795296 123.809143,64.106560 
	C127.312195,61.787090 130.157501,61.241264 134.023987,63.869080 
	C143.316116,70.184364 153.373688,71.062164 163.928040,66.800720 
	C165.251312,66.266426 167.727722,66.996407 168.909485,68.019157 
	C171.784653,70.507477 174.212631,73.512512 177.082947,76.515427 
	C183.339233,81.141174 182.847275,85.924194 179.900253,92.392960 
	C177.799988,97.003166 177.801636,103.083855 178.441589,108.315514 
	C179.543823,117.326660 181.873901,126.187630 183.664047,135.486023 
	C171.819519,135.843018 159.999634,135.825623 147.640137,135.419281 
	C147.009201,133.429901 146.917892,131.829483 146.822266,130.153442 
	C142.022110,130.153442 137.512146,130.153442 132.984619,130.153442 
	C132.834686,132.163177 132.712433,133.802048 132.444000,135.431793 
	C132.101898,135.482666 131.949463,135.599457 131.386292,135.757782 
	C125.893753,135.783264 120.855476,135.824036 115.627548,135.534332 
	C115.984718,127.823990 116.531555,120.444092 117.470329,112.936188 
	C121.479645,112.323242 125.097015,111.838303 128.714401,111.353355 
	C128.876938,110.912064 129.039490,110.470764 129.202042,110.029472 
	C125.638359,108.612679 122.074677,107.195885 117.769890,105.484451 
	C126.098213,100.441086 133.109314,104.674950 140.994888,107.880653 
	C137.535660,101.189560 132.572449,98.102509 126.274300,96.681725 
	C126.488075,96.263527 126.701843,95.845337 126.915619,95.427139 
	C130.113800,96.528114 133.311981,97.629082 136.730103,98.823318 
	C137.008347,98.572800 137.066635,98.229027 136.989380,97.574341 
	C132.992859,90.963921 126.670753,90.247849 119.824516,90.720833 
	C119.855247,90.038177 119.885971,89.355515 119.916695,88.672859 
	C122.836090,88.208794 125.755486,87.744736 128.674881,87.280678 
	C128.763535,87.024475 128.852203,86.768272 128.940857,86.512077 
	C126.550926,85.745377 124.160988,84.978676 121.639603,84.169800 
	C123.213539,82.977272 124.546997,81.966949 125.880455,80.956627 
	C125.652428,80.556129 125.424400,80.155640 125.196373,79.755150 
	C122.616524,80.906548 120.036682,82.057938 117.308411,83.275581 
	C115.366402,82.676453 113.066689,81.966972 110.766975,81.257492 
	C110.652481,81.610458 110.537987,81.963425 110.423492,82.316399 
	C111.572159,83.064148 112.720818,83.811905 114.768341,85.144791 
	C103.253052,86.956833 95.517754,92.242310 93.663780,98.633789 
	C103.301971,95.335289 105.098984,95.171761 108.965919,97.241287 
	C96.759842,99.137833 91.278229,102.687820 91.163673,108.770309 
	C101.747025,101.594452 105.234985,101.194298 108.414665,106.023293 
	C105.488609,107.428391 102.443733,108.890549 99.398849,110.352707 
	C99.650536,110.630997 99.902214,110.909279 100.153893,111.187569 
	C103.870575,111.658325 107.587257,112.129089 111.128075,113.024673 
	C110.599464,120.876991 110.246719,128.304489 109.893982,135.731979 
	C98.447395,135.756866 87.000801,135.781754 75.064362,135.900482 
M152.679977,112.278656 
	C161.221802,114.710663 168.468262,111.335915 170.772430,103.852806 
	C173.090546,96.324417 169.153091,88.953453 161.512985,86.518990 
	C155.244614,84.521614 148.183701,87.724136 145.311798,93.867096 
	C142.168503,100.590637 144.680695,107.464432 152.679977,112.278656 
z"/>
<path fill="#88C180" opacity="1.000000" stroke="none" 
	d="
M131.840561,135.773056 
	C131.949463,135.599457 132.101898,135.482666 132.515564,135.848282 
	C132.768784,146.080078 132.804276,155.886276 132.839767,165.692490 
	C133.666489,165.680786 134.493225,165.669083 135.319946,165.657379 
	C135.319946,158.471909 135.319946,151.286423 135.562927,144.193283 
	C136.648560,144.376831 137.491196,144.468048 138.441376,145.044464 
	C138.685486,152.251831 138.822052,158.973984 138.958633,165.696152 
	C139.712814,165.682907 140.466995,165.669647 141.221176,165.656403 
	C141.221176,158.829987 141.221176,152.003555 141.551163,145.307159 
	C142.616913,144.945602 144.002975,144.427322 143.984055,143.966766 
	C143.850403,140.713547 143.428207,137.472168 143.492462,134.262894 
	C144.180908,135.650848 144.718826,137.001190 144.728622,138.355316 
	C144.783691,145.977600 144.670288,153.601074 144.717865,161.223495 
	C144.727448,162.760834 145.182983,164.295395 145.432907,165.831238 
	C146.029404,165.765335 146.625885,165.699432 147.222382,165.633545 
	C147.222382,159.561234 147.222382,153.488937 147.222382,147.416626 
	C156.601318,152.576202 162.334457,159.989670 162.360352,171.549927 
	C143.090775,171.549927 124.255142,171.549927 104.965729,171.549927 
	C104.466911,163.161270 107.843346,156.890625 114.113724,151.633820 
	C117.605309,156.801315 120.541451,162.031067 123.720734,167.108582 
	C124.540146,168.417221 126.124054,169.247177 127.356773,170.297028 
	C127.598534,169.980179 127.840286,169.663345 128.082047,169.346497 
	C124.767479,162.311218 121.452911,155.275955 118.491028,148.135040 
	C122.098862,146.963760 125.293457,145.595261 128.628357,144.928558 
	C131.283646,144.397736 132.317947,143.280426 132.065216,140.680161 
	C131.907013,139.052567 131.909927,137.409286 131.840561,135.773056 
z"/>
<path fill="#6D5048" opacity="1.000000" stroke="none" 
	d="
M118.138344,148.240677 
	C121.452911,155.275955 124.767479,162.311218 128.082047,169.346497 
	C127.840286,169.663345 127.598534,169.980179 127.356773,170.297028 
	C126.124054,169.247177 124.540146,168.417221 123.720734,167.108582 
	C120.541451,162.031067 117.605309,156.801315 114.346832,151.400284 
	C112.741905,146.321182 111.368790,141.470032 109.944824,136.175430 
	C110.246719,128.304489 110.599464,120.876991 111.526787,113.104485 
	C113.760376,112.861046 115.419380,112.962624 117.078392,113.064194 
	C116.531555,120.444092 115.984718,127.823990 115.615776,135.987701 
	C116.575226,140.594574 117.356789,144.417618 118.138344,148.240677 
z"/>
<path fill="#FFB300" opacity="1.000000" stroke="none" 
	d="
M135.319946,144.100937 
	C135.319946,151.286423 135.319946,158.471909 135.319946,165.657379 
	C134.493225,165.669083 133.666489,165.680786 132.839767,165.692490 
	C132.804276,155.886276 132.768784,146.080078 132.661713,135.857391 
	C132.712433,133.802048 132.834686,132.163177 132.984619,130.153442 
	C137.512146,130.153442 142.022110,130.153442 146.822266,130.153442 
	C146.917892,131.829483 147.009201,133.429901 147.191132,135.466644 
	C147.240280,139.404465 147.198807,142.905975 147.189865,146.912048 
	C147.222382,153.488937 147.222382,159.561234 147.222382,165.633545 
	C146.625885,165.699432 146.029404,165.765335 145.432907,165.831238 
	C145.182983,164.295395 144.727448,162.760834 144.717865,161.223495 
	C144.670288,153.601074 144.783691,145.977600 144.728622,138.355316 
	C144.718826,137.001190 144.180908,135.650848 143.086121,134.278595 
	C141.930649,137.898010 141.575912,141.537567 141.221176,145.177139 
	C141.221176,152.003555 141.221176,158.829987 141.221176,165.656403 
	C140.466995,165.669647 139.712814,165.682907 138.958633,165.696152 
	C138.822052,158.973984 138.685486,152.251831 138.494324,144.639679 
	C137.804245,140.628006 140.104477,136.773438 135.319946,133.320450 
	C135.319946,137.680679 135.319946,140.890808 135.319946,144.100937 
z"/>
<path fill="#EDA421" opacity="1.000000" stroke="none" 
	d="
M186.275299,149.600433 
	C186.442139,151.172028 186.557404,153.148193 186.530914,155.414383 
	C186.334015,153.804611 186.278870,151.904800 186.275299,149.600433 
z"/>
<path fill="#EFA51D" opacity="1.000000" stroke="none" 
	d="
M71.725815,154.410446 
	C71.559647,153.750198 71.467728,152.750504 71.504204,151.529968 
	C71.688408,152.229752 71.744232,153.150391 71.725815,154.410446 
z"/>
<path fill="#EFA51D" opacity="1.000000" stroke="none" 
	d="
M72.200302,146.852127 
	C72.155914,146.339325 72.260170,145.566223 72.498192,144.543518 
	C72.537613,145.059891 72.443283,145.825867 72.200302,146.852127 
z"/>
<path fill="#EDA421" opacity="1.000000" stroke="none" 
	d="
M185.308350,143.489304 
	C185.559708,143.948792 185.774246,144.700500 185.983017,145.755020 
	C185.742020,145.299072 185.506775,144.540298 185.308350,143.489304 
z"/>
<path fill="#EFA51D" opacity="1.000000" stroke="none" 
	d="
M73.134155,141.695099 
	C73.120621,141.205566 73.250679,140.466492 73.518623,139.490051 
	C73.530258,139.983627 73.403992,140.714600 73.134155,141.695099 
z"/>
<path fill="#EDA421" opacity="1.000000" stroke="none" 
	d="
M184.275772,138.450516 
	C184.539352,138.908279 184.766403,139.662064 184.992432,140.719650 
	C184.740692,140.264481 184.489975,139.505508 184.275772,138.450516 
z"/>
<path fill="#45A14D" opacity="1.000000" stroke="none" 
	d="
M117.470329,112.936188 
	C115.419380,112.962624 113.760376,112.861046 111.702652,112.679657 
	C107.587257,112.129089 103.870575,111.658325 100.153893,111.187569 
	C99.902214,110.909279 99.650536,110.630997 99.398849,110.352707 
	C102.443733,108.890549 105.488609,107.428391 108.414665,106.023293 
	C105.234985,101.194298 101.747025,101.594452 91.163673,108.770309 
	C91.278229,102.687820 96.759842,99.137833 108.965919,97.241287 
	C105.098984,95.171761 103.301971,95.335289 93.663780,98.633789 
	C95.517754,92.242310 103.253052,86.956833 114.768341,85.144791 
	C112.720818,83.811905 111.572159,83.064148 110.423492,82.316399 
	C110.537987,81.963425 110.652481,81.610458 110.766975,81.257492 
	C113.066689,81.966972 115.366402,82.676453 117.308411,83.275581 
	C120.036682,82.057938 122.616524,80.906548 125.196373,79.755150 
	C125.424400,80.155640 125.652428,80.556129 125.880455,80.956627 
	C124.546997,81.966949 123.213539,82.977272 121.639603,84.169800 
	C124.160988,84.978676 126.550926,85.745377 128.940857,86.512077 
	C128.852203,86.768272 128.763535,87.024475 128.674881,87.280678 
	C125.755486,87.744736 122.836090,88.208794 119.916695,88.672859 
	C119.885971,89.355515 119.855247,90.038177 119.824516,90.720833 
	C126.670753,90.247849 132.992859,90.963921 136.830566,97.781815 
	C136.708237,98.443474 136.609207,98.586761 136.510162,98.730057 
	C133.311981,97.629082 130.113800,96.528114 126.915619,95.427139 
	C126.701843,95.845337 126.488075,96.263527 126.274300,96.681725 
	C132.572449,98.102509 137.535660,101.189560 140.994888,107.880653 
	C133.109314,104.674950 126.098213,100.441086 117.769890,105.484451 
	C122.074677,107.195885 125.638359,108.612679 129.202042,110.029472 
	C129.039490,110.470764 128.876938,110.912064 128.714401,111.353355 
	C125.097015,111.838303 121.479645,112.323242 117.470329,112.936188 
z"/>
<path fill="#FFB304" opacity="1.000000" stroke="none" 
	d="
M152.308258,112.136063 
	C144.680695,107.464432 142.168503,100.590637 145.311798,93.867096 
	C148.183701,87.724136 155.244614,84.521614 161.512985,86.518990 
	C169.153091,88.953453 173.090546,96.324417 170.772430,103.852806 
	C168.468262,111.335915 161.221802,114.710663 152.308258,112.136063 
z"/>
<path fill="#293793" opacity="1.000000" stroke="none" 
	d="
M118.491028,148.135040 
	C117.356789,144.417618 116.575226,140.594574 115.805435,136.318146 
	C120.855476,135.824036 125.893753,135.783264 131.386292,135.757782 
	C131.909927,137.409286 131.907013,139.052567 132.065216,140.680161 
	C132.317947,143.280426 131.283646,144.397736 128.628357,144.928558 
	C125.293457,145.595261 122.098862,146.963760 118.491028,148.135040 
z"/>
<path fill="#45A14D" opacity="1.000000" stroke="none" 
	d="
M136.966095,98.092728 
	C137.066635,98.229027 137.008347,98.572800 136.730103,98.823318 
	C136.609207,98.586761 136.708237,98.443474 136.966095,98.092728 
z"/>
<path fill="#49488D" opacity="1.000000" stroke="none" 
	d="
M135.562927,144.193283 
	C135.319946,140.890808 135.319946,137.680679 135.319946,133.320450 
	C140.104477,136.773438 137.804245,140.628006 138.386780,144.154480 
	C137.491196,144.468048 136.648560,144.376831 135.562927,144.193283 
z"/>
<path fill="#3D3F90" opacity="1.000000" stroke="none" 
	d="
M141.551163,145.307159 
	C141.575912,141.537567 141.930649,137.898010 142.691727,134.242737 
	C143.428207,137.472168 143.850403,140.713547 143.984055,143.966766 
	C144.002975,144.427322 142.616913,144.945602 141.551163,145.307159 
z"/>
</svg>